<?xml version="1.0" encoding="UTF-8" standalone="no"?><!DOCTYPE svg PUBLIC "-//W3C//DTD SVG 1.1//EN" "http://www.w3.org/Graphics/SVG/1.1/DTD/svg11.dtd"><svg width="100%" height="100%" viewBox="0 0 128 128" version="1.1" xmlns="http://www.w3.org/2000/svg" xmlns:xlink="http://www.w3.org/1999/xlink" xml:space="preserve" xmlns:serif="http://www.serif.com/" style="fill-rule:evenodd;clip-rule:evenodd;stroke-linejoin:round;stroke-miterlimit:2;"><path d="M20.31,62.318c-1.093,-3.9 -1.677,-8.008 -1.677,-12.252c0,-25.039 20.328,-45.367 45.367,-45.367c25.038,-0 45.367,20.328 45.367,45.367c-0,4.244 -0.584,8.352 -1.677,12.252l-0,-0l-0,0.001c-0.789,2.814 -1.842,5.518 -3.134,8.085c-7.657,18.325 -18.877,35.679 -36.064,51.405c-2.547,2.315 -6.437,2.315 -8.985,-0c-17.186,-15.726 -28.406,-33.08 -36.063,-51.404c-1.291,-2.566 -2.345,-5.271 -3.134,-8.087l-0,-0l0,-0Zm43.69,-45.108c18.133,0 32.855,14.722 32.855,32.856c0,18.133 -14.722,32.855 -32.855,32.855c-18.133,-0 -32.855,-14.722 -32.855,-32.855c-0,-18.134 14.722,-32.856 32.855,-32.856Zm-13.972,56.742c-1.499,-0.901 -2.24,-2.669 -1.832,-4.37c1.674,-6.64 8.117,-11.605 15.804,-11.605c7.687,0 14.13,4.965 15.78,11.611c0.406,1.69 -0.331,3.448 -1.82,4.344c-3.789,2.149 -8.657,3.428 -13.96,3.428c-5.303,-0 -10.171,-1.279 -13.972,-3.408Zm13.972,-43.234c6.674,-0 12.093,5.419 12.093,12.093c0,6.674 -5.419,12.093 -12.093,12.093c-6.674,0 -12.093,-5.419 -12.093,-12.093c-0,-6.674 5.419,-12.093 12.093,-12.093Z" style="fill:#007fc1;"/></svg>