<?xml version="1.0" encoding="UTF-8" standalone="no" ?>
<!DOCTYPE svg PUBLIC "-//W3C//DTD SVG 1.1//EN" "http://www.w3.org/Graphics/SVG/1.1/DTD/svg11.dtd">
<svg xmlns="http://www.w3.org/2000/svg" xmlns:xlink="http://www.w3.org/1999/xlink" version="1.1" width="1080" height="1080" viewBox="0 0 1080 1080" xml:space="preserve">
<desc>Created with Fabric.js 5.2.4</desc>
<defs>
</defs>
<g transform="matrix(1 0 0 1 540 540)" id="f3326307-79ee-4276-a9ed-f2ea1cd0a1da"  >
<rect style="stroke: none; stroke-width: 1; stroke-dasharray: none; stroke-linecap: butt; stroke-dashoffset: 0; stroke-linejoin: miter; stroke-miterlimit: 4; fill: rgb(255,255,255); fill-rule: nonzero; opacity: 1; visibility: hidden;" vector-effect="non-scaling-stroke"  x="-540" y="-540" rx="0" ry="0" width="1080" height="1080" />
</g>
<g transform="matrix(1 0 0 1 540 540)" id="bd02b5e0-f551-4878-acd1-ef09dad817b7"  >
</g>
<g transform="matrix(0.56 0 0 0.56 520.79 509.95)"  >
<path style="stroke: none; stroke-width: 1; stroke-dasharray: none; stroke-linecap: butt; stroke-dashoffset: 0; stroke-linejoin: round; stroke-miterlimit: 2; fill: rgb(0,177,255); fill-rule: evenodd; opacity: 1;" vector-effect="non-scaling-stroke"  transform=" translate(-1283.92, -1235.96)" d="M 785.506 1297.42 C 787.29 1292.96 789.074 1288.5 789.074 1284.49 C 789.966 1269.77 781.938 1253.27 774.801 1240.78 C 758.745 1214.02 732.877 1195.28 702.548 1189.49 C 695.858 1188.15 689.614 1187.7 682.924 1187.7 C 620.928 1187.7 571.421 1238.55 571.421 1299.65 C 571.421 1361.64 620.928 1411.6 682.924 1411.6 C 708.346 1411.6 742.689 1403.57 767.219 1379.93 C 777.923 1369.67 778.369 1352.28 767.665 1342.02 C 757.407 1331.32 740.459 1331.32 729.755 1341.58 C 718.158 1352.73 697.196 1358.52 682.924 1358.52 C 655.271 1358.52 632.525 1338.9 626.281 1313.48 L 763.651 1313.48 C 774.355 1313.48 781.938 1305.89 785.506 1297.42 Z M 1927.73 1297.42 C 1929.52 1292.96 1931.3 1288.5 1931.3 1284.49 C 1932.19 1269.77 1924.16 1253.27 1917.03 1240.78 C 1900.97 1214.02 1875.11 1195.28 1844.78 1189.49 C 1838.09 1188.15 1831.84 1187.7 1825.15 1187.7 C 1763.16 1187.7 1713.65 1238.55 1713.65 1299.65 C 1713.65 1361.64 1763.16 1411.6 1825.15 1411.6 C 1850.57 1411.6 1884.92 1403.57 1909.45 1379.93 C 1920.15 1369.67 1920.6 1352.28 1909.89 1342.02 C 1899.63 1331.32 1882.69 1331.32 1871.98 1341.58 C 1860.39 1352.73 1839.42 1358.52 1825.15 1358.52 C 1797.5 1358.52 1774.75 1338.9 1768.51 1313.48 L 1905.88 1313.48 C 1916.58 1313.48 1924.16 1305.89 1927.73 1297.42 Z M 624.943 1072.63 L 417.995 1072.63 C 403.276 1072.63 391.234 1084.67 391.234 1099.39 C 391.234 1114.56 403.276 1126.6 417.995 1126.6 L 494.262 1126.6 L 494.262 1383.95 C 494.262 1399.11 506.304 1411.15 521.469 1411.15 C 536.187 1411.15 548.229 1399.11 548.229 1383.95 L 548.229 1126.6 L 624.943 1126.6 C 639.661 1126.6 651.703 1114.56 651.703 1099.39 C 651.703 1084.67 639.661 1072.63 624.943 1072.63 Z M 1714.99 1371.46 L 1657.45 1262.63 C 1692.69 1247.47 1717.66 1213.12 1717.66 1174.32 C 1717.66 1118.57 1673.06 1071.74 1619.99 1071.74 L 1518.3 1074.42 C 1504.47 1075.31 1493.32 1086.9 1493.32 1100.73 L 1493.32 1383.5 C 1493.32 1398.22 1504.92 1409.81 1519.64 1409.81 C 1534.35 1409.81 1545.95 1398.22 1545.95 1383.5 L 1545.95 1271.55 L 1602.59 1271.55 L 1668.16 1395.99 C 1672.62 1405.35 1681.98 1410.26 1691.35 1410.26 C 1695.81 1410.26 1699.82 1409.37 1703.84 1407.14 C 1716.77 1400.45 1721.68 1384.39 1714.99 1371.46 Z M 2149.4 1071.74 C 2134.68 1071.74 2122.64 1084.23 2122.64 1098.95 L 2122.64 1203.31 C 2104.35 1191.72 2082.95 1184.58 2059.75 1184.58 C 1997.76 1184.58 1946.91 1235.42 1946.91 1297.42 C 1946.91 1359.86 1997.76 1410.26 2059.75 1410.26 C 2083.39 1410.26 2105.69 1403.12 2123.53 1390.64 C 2127.1 1401.79 2137.36 1409.37 2149.4 1409.37 C 2164.56 1409.37 2176.61 1397.33 2176.61 1382.61 L 2176.61 1098.95 C 2176.61 1084.23 2164.56 1071.74 2149.4 1071.74 Z M 1333.42 1188.18 C 1334.76 1191.03 1336.38 1193.83 1338.03 1196.74 C 1342.61 1204.85 1355.38 1225.98 1339.48 1237.69 C 1324.07 1249.04 1313.64 1260.06 1306.42 1271.48 L 1306.42 1271.48 C 1294.9 1289.67 1300.63 1315.92 1309.47 1330.43 C 1322.46 1351.77 1346.7 1360.73 1369.87 1359.98 C 1404.33 1358.88 1417.38 1348.83 1429.42 1338.17 C 1447.99 1321.75 1463.76 1299.12 1470.29 1276.09 C 1473.11 1285.85 1473.17 1287.22 1473.25 1297.87 C 1472.81 1359.41 1422.41 1409.37 1360.86 1409.37 C 1299.31 1409.37 1248.91 1359.41 1248.91 1297.42 C 1248.91 1244.25 1283.51 1199.41 1333.42 1188.18 Z M 1124.47 1187.7 C 1104.4 1187.7 1086.12 1193.5 1070.06 1203.76 C 1066.49 1193.05 1056.68 1185.47 1045.08 1185.47 C 1030.36 1185.47 1018.32 1197.51 1018.32 1212.23 L 1018.32 1382.61 C 1018.32 1397.33 1030.36 1409.37 1045.08 1409.37 C 1059.8 1409.37 1071.84 1397.33 1071.84 1382.61 L 1071.84 1306.79 C 1071.84 1276.01 1089.68 1241.22 1124.47 1241.22 C 1152.57 1241.22 1175.76 1266.64 1175.76 1298.31 L 1175.76 1382.61 C 1175.76 1397.33 1187.36 1409.37 1202.52 1409.37 C 1217.24 1409.37 1228.84 1397.33 1228.84 1382.61 L 1228.84 1298.31 C 1228.84 1237.21 1182.01 1187.7 1124.47 1187.7 Z M 912.172 1408.92 C 882.735 1408.92 855.529 1397.77 834.567 1377.7 C 813.158 1356.74 801.116 1329.09 800.224 1299.2 C 799.778 1269.77 810.482 1241.22 831.89 1219.82 C 852.407 1198.41 880.059 1186.36 909.942 1185.47 C 939.825 1185.03 967.923 1196.18 989.332 1217.14 C 1000.04 1226.95 1000.48 1244.35 990.224 1254.6 C 979.965 1265.31 963.017 1265.75 952.313 1255.5 C 941.163 1244.79 926.444 1238.99 910.834 1238.99 C 895.224 1238.99 880.951 1245.68 869.801 1256.83 C 859.543 1267.98 853.299 1282.7 853.745 1298.31 C 853.745 1313.48 860.435 1328.64 871.585 1338.9 C 882.735 1350.05 897.454 1355.85 912.618 1355.4 C 927.336 1355.4 941.163 1349.6 951.867 1339.79 C 962.125 1329.53 979.519 1330.42 989.332 1341.13 C 999.59 1351.83 998.698 1368.78 987.993 1379.04 C 967.923 1397.77 941.609 1408.48 913.956 1408.92 L 912.172 1408.92 Z M 2059.75 1356.29 C 2027.19 1356.29 2000.88 1329.98 2000.88 1297.42 C 2000.88 1264.86 2027.19 1238.55 2059.75 1238.55 C 2092.31 1238.55 2118.62 1264.86 2118.62 1297.42 C 2118.62 1329.98 2092.31 1356.29 2059.75 1356.29 Z M 1398.18 1161.81 C 1392.78 1142.13 1380.72 1111.6 1381.87 1098.45 C 1374.46 1095.62 1369.19 1088.44 1369.19 1080.04 C 1369.19 1069.16 1378.03 1060.32 1388.9 1060.32 C 1399.79 1060.32 1408.62 1069.16 1408.62 1080.04 C 1408.62 1087.33 1404.65 1093.7 1398.77 1097.11 C 1399.27 1119.45 1405.92 1137.63 1413.65 1158.71 L 1414.75 1158.54 L 1415.3 1158.45 C 1410.33 1145.55 1408.37 1133.27 1410.38 1121.13 C 1408.35 1118.81 1406.83 1115.98 1406.05 1112.78 C 1403.48 1102.21 1409.97 1091.54 1420.54 1088.97 C 1431.12 1086.4 1441.79 1092.89 1444.36 1103.46 C 1446.93 1114.04 1440.43 1124.71 1429.86 1127.28 C 1427.75 1127.79 1425.63 1127.94 1423.57 1127.77 C 1422.86 1137.6 1425.02 1147.87 1428.96 1156.83 C 1439.87 1156.04 1448.06 1156.88 1450.06 1160.05 C 1458.9 1174.11 1464.58 1209.83 1461.24 1243.16 C 1459 1265.62 1447.09 1300.48 1425.19 1319.85 C 1415.19 1328.7 1403 1342 1374.38 1342.92 C 1356.02 1343.51 1336.65 1336.69 1326.35 1319.77 C 1319.54 1308.58 1314.63 1288.37 1323.51 1274.35 C 1337.9 1251.62 1345.11 1261.31 1355.85 1238.03 C 1369.08 1209.35 1353.39 1200.35 1349.65 1187.24 C 1348.19 1182.14 1355.44 1176.69 1366.63 1171.82 C 1362.81 1159.61 1357.62 1150.94 1344.03 1148.34 C 1340.55 1153.96 1334.33 1157.71 1327.24 1157.71 C 1316.36 1157.71 1307.53 1148.88 1307.53 1138 C 1307.53 1127.12 1316.36 1118.29 1327.24 1118.29 C 1336.89 1118.29 1344.93 1125.23 1346.62 1134.39 C 1365.92 1137.78 1374.89 1149.39 1380.35 1166.71 L 1381.48 1166.36 C 1370.68 1126.67 1354.52 1112.08 1338.32 1102.59 C 1335.16 1104.74 1331.35 1106 1327.24 1106 C 1316.36 1106 1307.53 1097.17 1307.53 1086.29 C 1307.53 1075.41 1316.36 1066.58 1327.24 1066.58 C 1338.12 1066.58 1346.95 1075.41 1346.95 1086.29 C 1346.95 1087.33 1346.87 1088.35 1346.72 1089.34 C 1378.88 1109.04 1389.12 1137.27 1396.36 1162.24 C 1396.96 1162.1 1397.57 1161.95 1398.18 1161.81 Z M 682.924 1241.67 C 702.994 1241.67 719.496 1251.48 728.416 1268.43 L 633.863 1268.43 C 644.567 1251.93 662.407 1241.67 682.924 1241.67 Z M 1825.15 1241.67 C 1845.22 1241.67 1861.72 1251.48 1870.64 1268.43 L 1776.09 1268.43 C 1786.8 1251.93 1804.63 1241.67 1825.15 1241.67 Z M 1545.95 1124.82 L 1619.99 1124.82 C 1643.63 1124.82 1665.03 1148.01 1665.03 1174.32 C 1665.03 1197.96 1642.29 1218.92 1616.42 1218.92 L 1545.95 1218.92 L 1545.95 1124.82 Z M 1327.24 1128.14 C 1332.68 1128.14 1337.1 1132.56 1337.1 1138 C 1337.1 1143.44 1332.68 1147.86 1327.24 1147.86 C 1321.8 1147.86 1317.38 1143.44 1317.38 1138 C 1317.38 1132.56 1321.8 1128.14 1327.24 1128.14 Z M 1422.87 1098.54 C 1428.16 1097.26 1433.49 1100.51 1434.78 1105.79 C 1436.06 1111.08 1432.82 1116.41 1427.53 1117.7 C 1422.24 1118.98 1416.91 1115.74 1415.62 1110.45 C 1414.34 1105.16 1417.59 1099.83 1422.87 1098.54 Z M 1327.24 1076.43 C 1332.68 1076.43 1337.1 1080.85 1337.1 1086.29 C 1337.1 1091.73 1332.68 1096.15 1327.24 1096.15 C 1321.8 1096.15 1317.38 1091.73 1317.38 1086.29 C 1317.38 1080.85 1321.8 1076.43 1327.24 1076.43 Z M 1388.9 1070.18 C 1394.35 1070.18 1398.76 1074.6 1398.76 1080.04 C 1398.76 1085.48 1394.35 1089.89 1388.9 1089.89 C 1383.46 1089.89 1379.05 1085.48 1379.05 1080.04 C 1379.05 1074.6 1383.46 1070.18 1388.9 1070.18 Z" stroke-linecap="round" />
</g>
</svg>